<svg xmlns="http://www.w3.org/2000/svg" xmlns:xlink="http://www.w3.org/1999/xlink" width="1500" height="1500" viewBox="0 0 1500 1500">
<defs>
<clipPath id="clip-undraw_predictive_analytics_re_wxt8">
<rect width="1500" height="1500" id="id_105"></rect>
</clipPath>
</defs>
<g id="undraw_predictive_analytics_re_wxt8" clip-path="url(#clip-undraw_predictive_analytics_re_wxt8)">
<rect width="1500" height="1500" fill="#fff" id="id_106"></rect>
<g id="undraw_predictive_analytics_re_wxt8-2" data-name="undraw_predictive_analytics_re_wxt8">
<g id="undraw_predictive_analytics_re_wxt8-3" data-name="undraw_predictive_analytics_re_wxt8">
<rect id="Rectangle_2206" data-name="Rectangle 2206" width="1500" height="1500" fill="#fff" opacity="0"></rect>
<path id="Path_16397" data-name="Path 16397" d="M1149.12,282.32H414.74A48.908,48.908,0,0,0,365.895,331.2V834.749a48.908,48.908,0,0,0,48.845,48.875h734.38a48.9,48.9,0,0,0,48.84-48.875V331.2a48.9,48.9,0,0,0-48.84-48.875Z" fill="#f2f2f2"></path>
<path id="Path_16398" data-name="Path 16398" d="M1069.44,321.107H335.066a48.908,48.908,0,0,0-48.845,48.876V873.536a48.908,48.908,0,0,0,48.845,48.875H1069.44a48.911,48.911,0,0,0,48.85-48.875V369.983A48.912,48.912,0,0,0,1069.44,321.107Zm43.71,404.22c0,106.008-85.88,191.945-191.827,191.945H335.066a43.723,43.723,0,0,1-43.709-43.736V369.983a43.722,43.722,0,0,1,43.709-43.736H1069.44a43.723,43.723,0,0,1,43.71,43.736Z" fill="#3f3d56"></path>
<path id="Path_16399" data-name="Path 16399" d="M391.118,813.284l-4.347-2.737c2.826-4.494,5.741-8.849,8.663-12.945l4.181,2.986c-2.866,4.015-5.724,8.286-8.5,12.7Z" fill="#ccc"></path>
<path id="Path_16400" data-name="Path 16400" d="M419.438,776.657l-3.676-3.588a150.138,150.138,0,0,1,24.515-20.506l2.831,4.289a144.984,144.984,0,0,0-23.67,19.806Zm128.137-32.439a98.09,98.09,0,0,1-15.9-1.471l.831-5.071a91.816,91.816,0,0,0,15.073,1.4,69.478,69.478,0,0,0,15.207-1.7l1.109,5.019a74.639,74.639,0,0,1-16.316,1.822Zm-76.854-.68-1.544-4.9a108.079,108.079,0,0,1,16.987-3.881,99.868,99.868,0,0,1,14.443-1.063h.316v5.14h-.316a94.685,94.685,0,0,0-13.707,1.01,102.961,102.961,0,0,0-16.179,3.7Zm122.426-14.852-3.283-3.953c7.087-5.891,12.167-13.014,17.546-20.556l2.146-3,4.168,3-2.133,2.981c-5.577,7.821-10.847,15.209-18.444,21.524Zm41.19-47.123-3.16-4.053a94.293,94.293,0,0,1,23.912-13.39q2.342-.922,4.485-1.651l1.658,4.863c-1.362.466-2.779.986-4.264,1.571a89.21,89.21,0,0,0-22.631,12.66Zm62.007-17.851c-1.728,0-3.367-.016-4.942-.034l.06-5.139c1.61.019,3.29.023,5.069.034a216.971,216.971,0,0,0,26.008-1.51l.592,5.105a225.258,225.258,0,0,1-26.787,1.544Zm58.03-6.73-1.018-5.037c9.226-1.867,19.958-4.089,30.582-6.832l1.284,4.977C774.477,652.864,763.665,655.1,754.374,656.982Zm61.1-16.635-1.921-4.767A144.51,144.51,0,0,0,840.9,621.255l2.879,4.256a149.577,149.577,0,0,1-28.3,14.836Zm51.9-36.723-4.168-3c1.434-1.99,2.672-3.931,3.87-5.808,3.536-5.541,7.194-11.272,15.9-18.306l.609-.488,3.183,4.033-.566.453c-8.058,6.51-11.332,11.641-14.8,17.074-1.236,1.936-2.515,3.939-4.031,6.046Zm46.077-38.546-1.873-4.785A170.848,170.848,0,0,1,942.3,551.7l.948,5.052a165.858,165.858,0,0,0-29.8,8.323Z" fill="#ccc"></path>
<path id="Path_16401" data-name="Path 16401" d="M974.647,552.981l-.321-5.129c4.991-.313,10.209-.518,15.509-.614l.093,5.14c-5.225.092-10.367.3-15.281.6Z" fill="#ccc"></path>
<path id="Path_16402" data-name="Path 16402" d="M448.391,376.8H376.33a6.591,6.591,0,0,0,0,13.182h72.061a6.591,6.591,0,0,0,0-13.182Z" fill="#e6e6e6"></path>
<path id="Path_16403" data-name="Path 16403" d="M569.093,376.8H497.031a6.591,6.591,0,0,0,0,13.182h72.062a6.591,6.591,0,0,0,0-13.182Z" fill="#e6e6e6"></path>
<path id="Path_16404" data-name="Path 16404" d="M689.794,376.8H617.733a6.591,6.591,0,0,0,0,13.182h72.061a6.591,6.591,0,0,0,0-13.182Z" fill="#e6e6e6"></path>
<path id="Path_16405" data-name="Path 16405" d="M1024.55,809.344H369.685v5.139H1024.55Z" fill="#e6e6e6"></path>
<path id="Path_16406" data-name="Path 16406" d="M989.959,434.173C943.348,435.38,908.576,449.1,886.542,474.9c-8.141,9.559-11.454,17.088-14.947,25.054-3.467,7.863-7.011,15.958-15.254,26.519v-8.737A114.458,114.458,0,0,0,866.9,497.875c3.647-8.326,7.113-16.189,15.742-26.288,23.011-26.982,59.067-41.3,107.167-42.554l.154,5.14Z" fill="#ccc"></path>
<path id="Path_16407" data-name="Path 16407" d="M871.595,499.956c-3.467,7.863-7.011,15.957-15.255,26.519q-1.464,1.889-3.158,3.931c-29.739,35.385-69.468,47-101.415,56.353-2,.591-3.955,1.131-5.855,1.645-28.4,7.709-43.966,7.426-55.549,7.246-11.633-.205-19.312-.334-33.051,7.529-25.193,14.365-35.517,35.385-45.507,55.711-10.3,20.917-20.006,40.678-44.762,49.954-17.181,6.425-29.251,3.238-42.014-.1-10.966-2.9-30.73-74.376-48.229-84.8-36.134,7.581-58.091,125.734-85.493,189l-4.725-2.056c28.121-64.859,51.285-184.014,89.139-191.98,16.872-3.546,39.087,81.818,50.617,84.85,11.968,3.161,23.242,6.116,38.907.257,22.856-8.531,31.691-26.544,41.937-47.384,9.862-20.044,21.033-42.76,47.562-57.921,14.972-8.557,23.678-8.4,35.7-8.2,11.453.205,26.913.462,55.471-7.426,1.438-.412,2.9-.823,4.417-1.26,31.279-9.148,70.186-20.531,98.9-54.708a110.8,110.8,0,0,0,7.113-9.379A114.364,114.364,0,0,0,866.9,497.874c3.647-8.326,8.192-5.884,4.7,2.082Z" fill="#ffc932"></path>
<path id="Path_16408" data-name="Path 16408" d="M597.733,1087.85a41.957,41.957,0,0,0-9.659-17.44l-15.058-68.69-32.824,8.05L559,1078.58a41.7,41.7,0,0,0,1.043,19.86c4.644,16.18,16.846,26.92,27.253,24s15.079-18.41,10.435-34.59Z" fill="#ffb6b6"></path>
<path id="Path_16409" data-name="Path 16409" d="M593.193,637.276s-51.836-1.062-65.016,36.709c-12,34.38-26.219,128.832-18.531,134.29l32.725,232.515,46.664-6.41L577.059,755.39l16.134-118.114Z" fill="#938ccf"></path>
<path id="Path_16410" data-name="Path 16410" d="M833.228,1068.88,824.034,1313H702.049l-4.931-109.39L675.443,1313H544.7l16.308-188.05,16.846-39.55,11.4-26.8Z" fill="#2f2e41"></path>
<path id="Path_16411" data-name="Path 16411" d="M735.639,590.923l-84.747-5.14-28.25,35.976-61.634,23.127,28.249,274.955L576.416,1084.3s179.768,143.9,256.811-15.42L812.682,876.156l5.137-223.561-59.067-25.7Z" fill="#9b95cf"></path>
<path id="Path_16412" data-name="Path 16412" d="M898.792,528.379a51.263,51.263,0,0,1-2.937,24L909.972,636.7l-40.293,5.548L859.7,556.12a51.213,51.213,0,0,1-7.778-22.9c-2.1-20.352,6.689-37.935,19.633-39.273s25.139,14.077,27.24,34.429Z" fill="#ffb6b6"></path>
<path id="Path_16413" data-name="Path 16413" d="M828.61,662.249c-13.89-23.756-48.346-26-63.778-3.212-4.219,6.228-3.044,13.229-4.051,21.64-4.276,35.71,64.111,141.23,111.431,153.379,6.209,1.594,9.747,8.3,16.014,9.644h0a28.838,28.838,0,0,0,34.851-29.728L910.223,570.6l-54,18.429,3.456,126.353L828.61,662.249Z" fill="#9a94d1"></path>
<path id="Path_16414" data-name="Path 16414" d="M702.06,579.133a74.695,74.695,0,1,0-74.649-74.694A74.671,74.671,0,0,0,702.06,579.133Z" fill="#ffb6b6"></path>
<path id="Path_16415" data-name="Path 16415" d="M771.593,449.591c-.642.154,9.826-10.056,10.272-10.279,10.272-5.139-.283,45.1-7.7,43.684-18.26-3.469-26.144-10.355-33.232,6.836-1.977,4.779-3.21,10.176-7.062,13.593-5.29,4.651-14.073,4.266-18.388,9.816-3.467,4.472-2.465,11.05.1,16.086,2.568,5.063,6.472,9.354,8.809,14.519,2.619,5.808-8.552,24.284-12.815,34.665v.026l-.025.061c-1.133,2.723-3.825-5.122-6.667-5.905-3.4-.937-8.411,7.1-13.827,5.638-.026,0-.052-.026-.077-.026-5.162-1.439-10.915-2.98-16.616-4.522h-.026c-16.05-4.369-20.108,1.9-20.878,1.722l-9.965-10.433c-3.419-2.492-3.033-10.534-5.444-12.7-1.972-1.766-6.888,2.316-8.337.618-7.1-8.326-8.739-16.655-12.927-33.1-3.826-15.033-11.762-60.028,4.546-62.058,15.383-1.927,4.134-23.358,19.62-22.561-.925-3.906.8-8.1,3.595-10.973,2.774-2.9,6.472-4.7,10.2-6.244,18.362-7.5,15.306-13.953,34.669-9.585,1.926-2.7,29.893-.9,33.386,0,.256.051-8.655,2.184,5.136,0-.514,3.161,8.218,4.548,7.7,7.709,1.926-2.6,22.625,12.309,23.113,15.418.642,3.88-5.213,1.9-1.31,2.492,2.312.36,6.266,5.063,5.881,7.4,1.669-2.261,3.339-4.5,5.034-6.758.308.026.59.077.9.128,7.807,1.491-1.144,27.028-.822,19.067.59-14.621,10.94-6.064,3.159-4.342Z" fill="#2f2e41"></path>
<path id="Path_16416" data-name="Path 16416" d="M1057.58,847.147a1.683,1.683,0,0,0,3.13,0c4.01-9.892,9.72-20.969,15.93-29.435a1.7,1.7,0,0,0-1.96-2.595l-13.31,4.819V737.484h-4.45v82.452l-13.32-4.819a1.7,1.7,0,0,0-1.96,2.594c6.21,8.466,11.92,19.544,15.94,29.436Z" fill="#3f3d56"></path>
<path id="Path_16417" data-name="Path 16417" d="M1144.87,932.043a1.685,1.685,0,0,0,2.45,1.95c9.29-5.251,20.65-10.373,30.77-13.138a1.7,1.7,0,0,0,.08-3.249l-13.42-4.51L1216,848.529l-3.49-2.773-51.25,64.567-7.43-12.06a1.693,1.693,0,0,0-3.14.814c-.4,10.494-2.82,22.722-5.82,32.966Z" fill="#3f3d56"></path>
<path id="Path_16418" data-name="Path 16418" d="M1103.18,987.066h-86.6a9.762,9.762,0,0,1-9.75-9.757c-11.451-33.487-11.225-66.3,0-98.478a9.762,9.762,0,0,1,9.75-9.757h86.6a9.762,9.762,0,0,1,9.75,9.757v98.478A9.762,9.762,0,0,1,1103.18,987.066Z" fill="#e6e6e6"></path>
<path id="Path_16419" data-name="Path 16419" d="M1035.13,871.98a25.414,25.414,0,0,0-25.4,25.416v77.823a8.938,8.938,0,0,0,8.94,8.939h47.89a43.487,43.487,0,0,0,43.47-43.494V880.92a8.939,8.939,0,0,0-8.94-8.94Z" fill="#fff"></path>
<path id="Path_16420" data-name="Path 16420" d="M1080.05,900.6H1039.5a1.854,1.854,0,0,1,0-3.709h40.55a1.854,1.854,0,0,1,0,3.709Z" fill="#e6e6e6"></path>
<path id="Path_16421" data-name="Path 16421" d="M1080.05,940.155H1039.5a1.855,1.855,0,0,1,0-3.71h40.55a1.855,1.855,0,0,1,0,3.71Z" fill="#e6e6e6"></path>
<path id="Path_16422" data-name="Path 16422" d="M1101.81,920.389h-84.06a1.855,1.855,0,1,1,0-3.709h84.06a1.854,1.854,0,0,1,0,3.709Z" fill="#e6e6e6"></path>
<path id="Path_16423" data-name="Path 16423" d="M1102.8,956.235h-35.08a1.855,1.855,0,0,1,0-3.71h35.08a1.855,1.855,0,0,1,0,3.71Z" fill="#e6e6e6"></path>
<path id="Path_16424" data-name="Path 16424" d="M317.007,250.528c17.677,0,32.007-14.037,32.007-31.352s-14.33-31.352-32.007-31.352S285,201.861,285,219.176,299.33,250.528,317.007,250.528Z" fill="#595959"></path>
<path id="Path_16425" data-name="Path 16425" d="M573.594,208.451H401.313a10.726,10.726,0,0,1,0-21.451H573.594a10.726,10.726,0,0,1,0,21.451Z" fill="#f2f2f2"></path>
<path id="Path_16426" data-name="Path 16426" d="M708.043,244.754H401.313a10.726,10.726,0,0,1,0-21.451h306.73a10.726,10.726,0,0,1,0,21.451Z" fill="#f2f2f2"></path>
</g>
<path id="Path_16605" data-name="Path 16605" d="M325.272,642.525c-8.506,29.51-33.343,50.167-59.252,67.714q-5.426,3.676-10.856,7.183c-.025.011-.05.034-.075.045-.174.112-.349.224-.511.337-.747.482-1.494.963-2.235,1.439l.407.183s.4.213-.038.034c-.13-.055-.266-.1-.4-.158-15.051-6.07-30.37-12.588-41.9-23.96-11.965-11.809-18.958-30.331-12.479-45.844a29.62,29.62,0,0,1,3.207-5.757c.526-.752,1.092-1.472,1.681-2.178a31.748,31.748,0,0,1,54.528,9.647c1.9-17.722-12.71-32.568-26.773-43.521s-30.056-22.87-32.776-40.495c-1.519-9.806,1.891-19.308,8.1-26.937.192-.232.384-.463.582-.689a46.333,46.333,0,0,1,29.78-15.977c21.574-2.242,42.529,9.177,58.2,24.177C319.692,571.9,334.942,608.972,325.272,642.525Z" transform="translate(752.082 486.222)" fill="#f2f2f2"></path>
<path id="Path_16606" data-name="Path 16606" d="M282.416,597.358a78.762,78.762,0,0,1,9.436,20.812,68.4,68.4,0,0,1,2.364,20.2,87.629,87.629,0,0,1-11.477,39.878,126.114,126.114,0,0,1-19.025,25.423q-5.426,3.676-10.856,7.183c-.025.011-.05.034-.075.045-.174.112-.349.224-.511.337-.747.482-1.494.963-2.235,1.439,0,0,.807.4.369.217-.13-.054-.266-.1-.4-.158a69.1,69.1,0,0,0-51.175-75.561c.526-.752,1.092-1.472,1.681-2.178a72.892,72.892,0,0,1,12.033,4.553,71.429,71.429,0,0,1,32.3,31.138A73.03,73.03,0,0,1,252.8,710.76c.618-.56,1.238-1.133,1.838-1.7,11.437-10.663,21.6-22.9,28.471-37.028a81.52,81.52,0,0,0,8.536-38.57c-.561-14.57-6.366-28.065-14.771-39.813a170.635,170.635,0,0,0-32.345-33.335A193.893,193.893,0,0,0,204.3,535.478a1.394,1.394,0,0,1-.7-1.789,1.186,1.186,0,0,1,.582-.689,1.031,1.031,0,0,1,.9.038c1.774.817,3.537,1.645,5.285,2.509a196.1,196.1,0,0,1,40.514,26.725C262.8,572.439,274.027,584.055,282.416,597.358Z" transform="translate(754.388 492.79)" fill="#fff"></path>
<path id="Path_16607" data-name="Path 16607" d="M202.554,638.25h93.216a7.211,7.211,0,0,1,7.155,8.106l-11.877,95.019a7.223,7.223,0,0,1-7.155,6.317H214.431a7.223,7.223,0,0,1-7.155-6.317L195.4,646.356a7.211,7.211,0,0,1,7.156-8.106Z" transform="translate(752 564.809)" fill="#3f3d56"></path>
</g>
</g>
</svg>