<?xml version="1.0" standalone="no"?>
<!DOCTYPE svg PUBLIC "-//W3C//DTD SVG 20010904//EN"
 "http://www.w3.org/TR/2001/REC-SVG-20010904/DTD/svg10.dtd">
<svg version="1.0" xmlns="http://www.w3.org/2000/svg"
 width="2560.000000pt" height="2560.000000pt" viewBox="0 0 2560.000000 2560.000000"
 preserveAspectRatio="xMidYMid meet">

<g transform="translate(0.000000,2560.000000) scale(0.100000,-0.100000)"
fill="#000000" stroke="none">
<path d="M12150 25259 c-63 -4 -191 -13 -285 -19 -93 -6 -213 -15 -265 -21
-265 -27 -414 -44 -515 -59 -33 -5 -96 -14 -140 -20 -75 -10 -109 -16 -255
-40 -192 -32 -337 -59 -440 -82 -25 -5 -63 -13 -85 -18 -22 -5 -62 -14 -90
-20 -480 -102 -1294 -342 -1660 -490 -11 -4 -58 -23 -105 -40 -47 -18 -98 -38
-115 -45 -16 -7 -86 -36 -155 -63 -113 -45 -283 -119 -490 -213 -313 -141
-862 -433 -1205 -641 -237 -144 -274 -167 -470 -298 -454 -305 -823 -585
-1235 -939 -394 -338 -891 -833 -1262 -1256 -183 -209 -487 -590 -628 -785
-19 -27 -69 -95 -110 -152 -514 -711 -1042 -1660 -1357 -2437 -30 -75 -62
-152 -70 -171 -29 -67 -102 -253 -113 -290 -5 -14 -27 -77 -50 -140 -169 -473
-346 -1087 -436 -1515 -9 -44 -20 -98 -25 -120 -21 -93 -59 -297 -79 -415 -27
-160 -32 -191 -41 -255 -40 -276 -46 -316 -79 -627 -12 -112 -27 -290 -41
-493 -17 -237 -23 -1088 -10 -1340 29 -538 81 -1028 162 -1510 24 -142 82
-447 100 -525 6 -25 14 -63 19 -85 93 -433 262 -1022 410 -1435 23 -63 45
-126 50 -140 96 -289 324 -819 536 -1245 398 -803 825 -1477 1393 -2200 493
-628 1177 -1330 1776 -1825 55 -45 111 -92 125 -104 139 -118 482 -379 684
-519 266 -186 616 -415 746 -489 19 -11 40 -24 45 -28 6 -4 27 -17 48 -29 20
-12 54 -30 75 -42 20 -12 42 -25 47 -29 6 -4 35 -21 65 -37 30 -17 75 -41 100
-55 164 -92 252 -139 436 -232 238 -119 364 -179 562 -267 26 -12 71 -32 100
-45 29 -13 55 -24 57 -24 2 0 28 -11 57 -24 228 -104 834 -325 1173 -427 39
-12 81 -25 95 -30 100 -33 497 -138 705 -187 139 -33 398 -88 525 -112 63 -11
135 -25 160 -30 51 -10 132 -23 373 -60 89 -13 300 -40 472 -59 150 -17 388
-36 660 -54 232 -14 1138 -14 1365 1 454 30 842 70 1185 123 147 22 183 28
300 49 363 64 907 189 1220 280 40 12 98 28 138 39 17 5 52 15 77 23 25 9 92
30 150 48 338 104 901 314 1165 434 110 50 146 66 150 66 6 0 118 53 355 167
165 80 422 212 555 286 33 19 83 47 110 62 310 173 612 361 990 620 249 170
678 497 891 679 38 34 97 84 129 111 711 602 1425 1382 2019 2205 234 324 548
822 761 1205 149 269 475 921 475 951 0 3 17 42 66 149 89 196 309 770 371
970 9 28 32 97 51 155 19 58 38 119 42 135 5 17 18 62 30 100 12 39 26 85 31
103 49 173 61 217 105 392 105 412 195 859 245 1210 6 41 15 104 20 140 43
300 74 620 101 1035 15 231 15 1147 0 1375 -14 209 -28 402 -37 485 -15 154
-44 407 -55 480 -5 33 -14 96 -20 140 -16 118 -47 319 -60 385 -5 25 -16 86
-25 135 -23 121 -90 437 -120 560 -13 55 -33 138 -45 185 -11 47 -29 119 -41
160 -11 41 -27 100 -35 130 -13 50 -45 158 -64 220 -113 366 -154 487 -260
775 -57 155 -162 419 -196 493 -13 29 -24 55 -24 57 0 2 -11 28 -24 57 -23 51
-39 86 -86 193 -70 159 -297 615 -378 762 -27 48 -66 120 -87 158 -21 39 -52
93 -68 120 -16 28 -38 65 -48 83 -59 102 -45 79 -214 352 -384 618 -929 1325
-1455 1885 -98 104 -461 468 -570 571 -348 328 -798 700 -1215 1004 -189 138
-591 408 -745 500 -25 15 -76 46 -114 70 -77 47 -69 42 -301 175 -379 217
-744 400 -1180 590 -240 105 -557 232 -685 275 -14 5 -77 27 -140 50 -381 137
-971 308 -1345 390 -27 6 -70 16 -95 21 -25 6 -63 14 -85 19 -36 9 -155 32
-302 60 -206 39 -366 65 -623 99 -41 6 -106 15 -145 20 -69 10 -181 21 -380
40 -114 11 -327 27 -560 41 -185 12 -1045 11 -1215 -1z m1270 -1099 c300 -19
666 -54 845 -80 33 -5 96 -14 140 -20 44 -6 105 -15 135 -20 30 -5 87 -14 125
-20 39 -6 95 -15 125 -21 30 -6 78 -15 105 -20 152 -29 195 -38 288 -58 26 -6
66 -15 90 -20 120 -27 259 -61 332 -80 17 -5 68 -19 115 -31 218 -57 721 -214
880 -275 25 -9 70 -26 100 -37 30 -11 64 -24 75 -28 11 -4 81 -32 155 -61 382
-148 950 -412 1240 -576 19 -11 71 -39 115 -63 275 -149 835 -506 1135 -725
518 -378 895 -701 1365 -1170 433 -432 729 -772 1068 -1225 39 -52 91 -122
116 -155 60 -80 355 -518 421 -625 307 -499 543 -945 759 -1433 126 -285 260
-625 327 -827 14 -41 29 -84 34 -95 10 -22 55 -160 90 -275 12 -41 26 -86 31
-100 27 -82 116 -407 163 -600 87 -358 152 -696 205 -1065 81 -572 111 -1008
111 -1630 0 -393 -5 -531 -30 -880 -55 -737 -194 -1516 -401 -2240 -11 -38
-24 -81 -28 -95 -5 -14 -19 -59 -31 -100 -30 -101 -141 -435 -180 -540 -18
-47 -35 -96 -40 -110 -24 -77 -202 -507 -318 -765 -92 -207 -384 -770 -483
-934 -22 -34 -39 -65 -39 -67 0 -3 -11 -21 -23 -42 -13 -20 -42 -66 -64 -102
-22 -36 -78 -125 -123 -198 -85 -137 -291 -440 -388 -572 -85 -115 -196 -263
-209 -280 -159 -202 -402 -495 -498 -600 -437 -476 -805 -836 -1135 -1110 -30
-25 -70 -59 -90 -76 -27 -24 -243 -199 -330 -267 -18 -14 -174 -131 -280 -209
-180 -132 -590 -407 -717 -479 -18 -10 -49 -29 -70 -42 -229 -146 -824 -461
-1129 -599 -131 -59 -174 -78 -279 -123 -129 -55 -449 -184 -485 -195 -14 -5
-63 -22 -110 -40 -105 -39 -439 -150 -540 -180 -41 -12 -86 -26 -100 -31 -57
-19 -222 -64 -435 -119 -242 -62 -667 -151 -910 -190 -38 -6 -95 -15 -125 -20
-30 -5 -91 -14 -135 -20 -44 -6 -109 -15 -145 -20 -194 -28 -551 -60 -875 -80
-220 -13 -971 -13 -1190 0 -341 21 -658 50 -880 81 -131 18 -290 41 -345 49
-30 5 -82 14 -115 19 -222 36 -677 134 -915 197 -210 56 -371 101 -440 123
-14 5 -59 19 -100 31 -108 33 -259 83 -385 128 -226 81 -358 131 -525 200
-502 208 -1045 476 -1413 699 -49 29 -91 53 -94 53 -2 0 -23 13 -46 29 -23 15
-47 30 -53 32 -32 12 -601 389 -724 480 -475 351 -743 572 -1105 908 -126 117
-542 537 -630 636 -44 49 -103 114 -131 145 -187 204 -471 557 -698 868 -100
138 -360 524 -436 647 -105 172 -209 344 -237 395 -16 30 -41 75 -55 100 -142
252 -354 681 -483 975 -241 552 -469 1219 -601 1760 -8 33 -19 76 -24 95 -5
19 -13 55 -19 80 -15 70 -29 131 -40 183 -37 163 -81 389 -101 522 -6 39 -15
95 -20 125 -52 319 -90 671 -121 1135 -15 220 -15 1050 0 1270 29 436 53 671
102 1010 24 173 63 405 79 480 5 22 14 69 20 105 7 36 16 79 20 95 4 17 13 57
20 90 15 79 29 142 40 185 5 19 23 94 41 165 17 72 35 144 40 160 5 17 31 109
59 205 76 271 205 665 270 825 4 11 22 58 40 105 37 98 42 112 63 160 9 19 30
71 47 115 18 44 40 98 50 120 9 22 48 110 86 195 66 150 309 643 377 765 57
102 86 153 110 197 118 214 362 602 520 828 129 184 417 574 436 590 3 3 33
39 66 80 241 303 481 567 824 911 168 168 367 359 441 425 173 154 476 410
524 443 12 8 23 18 26 21 6 8 302 231 405 306 200 144 396 277 520 354 150 93
477 290 480 290 2 0 30 15 62 34 219 127 637 337 966 485 26 11 66 30 90 40
24 11 68 30 98 41 30 12 70 28 89 37 35 15 62 26 103 42 12 4 34 13 50 20 52
21 72 29 132 51 33 12 69 26 80 30 258 104 871 293 1228 379 144 35 250 59
287 66 19 4 51 11 70 15 62 14 193 40 255 51 33 6 78 14 100 19 22 5 74 14
115 20 41 7 98 16 125 20 153 25 455 64 620 80 317 29 595 48 835 54 190 5
804 -4 970 -14z"/>
<path d="M12317 22763 c-9 -8 -9 -2076 -1 -2097 5 -14 53 -16 429 -16 257 0
426 4 430 9 7 13 7 2090 -1 2102 -6 10 -847 13 -857 2z"/>
<path d="M12630 19790 c-620 -37 -1193 -152 -1700 -340 -47 -18 -96 -35 -110
-40 -37 -11 -127 -48 -188 -76 -29 -13 -55 -24 -57 -24 -22 0 -443 -212 -590
-297 -217 -126 -264 -157 -585 -378 -495 -342 -746 -579 -1038 -982 -184 -254
-368 -579 -495 -873 -16 -36 -35 -81 -44 -100 -101 -231 -249 -689 -316 -975
-56 -240 -74 -356 -129 -865 -6 -63 -12 -209 -12 -325 0 -231 1 -235 99 -605
51 -192 52 -206 21 -269 -29 -56 -129 -220 -341 -556 -444 -704 -495 -792
-551 -950 -26 -73 -29 -92 -29 -210 0 -116 3 -139 28 -214 36 -107 63 -161
120 -237 88 -116 211 -211 365 -281 43 -19 86 -38 97 -44 22 -10 219 -74 277
-89 21 -6 39 -18 43 -29 3 -12 -15 -71 -46 -148 -55 -137 -74 -235 -64 -328 9
-79 54 -191 103 -258 l45 -61 -11 -81 c-6 -50 -7 -111 -2 -164 12 -114 74
-241 169 -343 128 -140 151 -170 151 -198 0 -16 -16 -86 -35 -156 -55 -199
-68 -310 -62 -509 6 -180 20 -259 72 -403 68 -187 199 -356 367 -470 171 -117
429 -199 693 -222 143 -13 258 -9 615 21 129 11 287 24 350 29 122 10 245 6
348 -12 78 -13 92 -30 131 -154 42 -133 57 -212 131 -694 11 -74 25 -153 30
-175 5 -22 16 -70 25 -106 11 -50 15 -127 15 -335 0 -260 1 -270 23 -308 32
-57 92 -86 177 -86 117 0 109 28 112 -407 l3 -372 30 -31 c61 -64 85 -70 284
-70 168 0 181 -1 191 -19 6 -12 10 -126 10 -301 0 -296 1 -302 49 -353 56 -61
-70 -57 1902 -57 1896 0 1830 -2 1889 43 60 45 60 46 60 362 0 165 4 296 10
305 7 12 44 16 193 20 181 5 184 5 226 33 79 53 81 60 81 469 0 415 -12 378
120 378 45 0 95 6 113 14 51 21 94 77 109 143 16 72 16 504 -2 1072 -17 541
-18 1192 -2 1251 43 159 57 201 99 300 114 267 265 475 531 735 440 429 554
545 672 685 30 36 57 67 60 70 64 62 363 474 448 616 16 27 52 86 81 132 28
46 51 85 51 87 0 2 14 28 31 57 32 53 189 365 227 448 31 68 107 251 121 290
7 19 17 44 22 55 4 11 15 40 23 65 8 25 25 72 37 105 19 54 45 136 69 220 42
146 55 192 75 275 226 912 226 1913 0 2820 -63 253 -143 512 -205 665 -4 11
-23 58 -41 105 -18 47 -45 113 -61 148 -15 34 -28 64 -28 66 0 12 -156 327
-209 420 -33 60 -61 111 -61 112 0 1 -23 40 -51 86 -29 46 -60 98 -70 116 -99
173 -409 586 -598 797 -59 65 -411 417 -476 476 -211 189 -621 497 -797 598
-18 10 -64 37 -102 61 -147 90 -267 155 -464 251 -90 43 -165 79 -167 79 -3 0
-33 13 -67 28 -35 16 -101 43 -148 61 -47 18 -94 37 -105 41 -132 54 -388 134
-605 191 -212 55 -537 116 -770 143 -299 36 -731 51 -990 36z m691 -620 c345
-27 751 -99 1064 -190 17 -5 46 -13 65 -18 43 -12 248 -80 275 -91 11 -5 92
-37 180 -72 147 -58 465 -210 610 -292 88 -49 278 -167 340 -210 22 -15 67
-46 100 -69 134 -93 389 -296 510 -408 77 -71 304 -298 375 -375 112 -121 315
-376 408 -510 23 -33 54 -78 69 -100 43 -62 161 -252 210 -340 82 -145 234
-463 292 -610 35 -88 67 -169 72 -180 11 -26 79 -230 90 -272 5 -18 13 -48 18
-65 94 -330 164 -721 191 -1067 15 -194 12 -647 -5 -846 -32 -381 -104 -755
-213 -1115 -26 -87 -71 -220 -82 -245 -4 -11 -29 -72 -53 -136 -66 -168 -83
-205 -179 -400 -298 -604 -742 -1188 -1173 -1543 -232 -192 -482 -462 -625
-676 -261 -389 -396 -773 -428 -1215 -11 -155 4 -896 23 -1143 9 -114 17 -223
18 -242 l2 -35 -1290 -8 c-709 -4 -1659 -6 -2110 -4 -837 3 -926 7 -955 42 -6
7 -20 82 -30 167 -19 150 -41 263 -59 303 -5 11 -19 81 -31 155 -42 263 -113
512 -181 641 -89 167 -266 286 -494 333 -165 34 -504 31 -900 -9 -88 -9 -252
-17 -365 -18 -184 -1 -214 2 -295 22 -186 48 -301 126 -356 244 -42 90 -52
161 -46 312 6 128 9 145 74 365 11 38 16 98 17 190 1 116 -2 145 -22 205 -47
139 -89 209 -204 333 -38 40 -68 77 -68 82 0 5 19 44 43 87 41 75 42 81 42
168 0 78 -4 97 -28 146 -25 53 -77 109 -157 169 l-33 26 25 64 c46 114 59 163
69 245 37 316 -135 573 -452 675 -303 97 -335 110 -415 168 -28 20 -47 45 -59
75 -16 43 -16 46 5 93 11 27 50 97 85 156 36 58 65 109 65 113 0 4 17 26 38
50 21 24 54 74 73 112 39 77 119 205 197 313 29 41 55 86 59 100 7 29 60 114
169 271 28 41 62 97 76 124 13 28 46 89 71 136 56 103 80 170 97 268 16 98 5
170 -79 491 l-66 255 1 175 c3 277 51 692 114 976 134 601 412 1268 698 1674
197 279 565 643 943 932 85 65 384 269 451 306 18 11 74 43 123 72 93 54 398
207 495 249 573 245 1088 369 1755 424 100 9 634 6 756 -3z"/>
<path d="M15285 17881 c-51 -31 -64 -53 -139 -238 -41 -98 -85 -204 -100 -237
l-26 -59 -48 7 c-174 23 -265 27 -454 22 -199 -6 -207 -6 -221 14 -7 11 -49
108 -93 217 -85 211 -105 241 -173 261 -36 11 -47 10 -93 -9 -144 -58 -295
-120 -418 -172 -58 -24 -115 -47 -127 -51 -32 -10 -81 -71 -88 -110 -6 -28 7
-70 74 -238 45 -112 81 -209 81 -215 0 -6 -30 -33 -67 -59 -78 -55 -292 -265
-377 -371 -33 -41 -66 -73 -76 -73 -15 0 -82 26 -155 60 -11 5 -94 41 -185 80
-138 60 -171 70 -200 65 -47 -9 -92 -60 -124 -142 -58 -145 -219 -518 -227
-527 -5 -6 -9 -29 -9 -52 0 -37 5 -47 42 -78 23 -20 45 -36 50 -36 15 0 443
-192 457 -206 13 -12 13 -30 1 -136 -19 -174 -24 -466 -10 -561 8 -57 8 -82 0
-92 -11 -13 -87 -48 -285 -130 -118 -49 -148 -74 -165 -134 -12 -44 -1 -82 75
-251 26 -58 76 -177 111 -265 36 -88 75 -170 87 -183 24 -25 78 -52 107 -52 9
0 104 36 210 80 107 45 199 79 206 76 7 -2 41 -42 75 -88 75 -98 195 -220 332
-337 53 -45 97 -87 97 -92 0 -5 -7 -26 -16 -47 -9 -20 -24 -57 -34 -82 -10
-25 -43 -107 -74 -184 -31 -76 -56 -151 -56 -165 0 -48 53 -84 235 -161 94
-40 237 -101 318 -136 82 -35 164 -64 182 -64 56 0 75 30 168 265 48 121 97
227 107 237 18 15 26 15 77 2 85 -21 373 -28 553 -15 123 9 156 9 166 -1 6 -7
27 -53 47 -103 67 -166 106 -257 117 -270 17 -21 75 -45 107 -45 17 0 144 49
284 108 140 60 280 119 312 132 67 26 106 70 114 127 5 38 -2 58 -103 313 -19
47 -34 92 -34 101 0 9 35 43 78 76 155 120 350 327 419 444 9 16 23 31 30 33
7 3 82 -24 166 -60 192 -84 244 -104 262 -104 27 0 80 66 109 135 16 39 50
120 76 180 26 61 69 162 95 225 26 63 53 128 61 144 34 72 8 118 -92 162 -37
16 -129 56 -203 90 l-136 60 1 50 c1 27 6 87 12 134 14 103 15 259 1 360 -5
41 -13 98 -16 126 l-5 50 68 31 c38 17 126 54 195 83 155 63 190 93 192 166 1
28 -5 64 -15 84 -9 19 -35 77 -57 127 -22 51 -53 121 -69 155 -16 35 -53 115
-81 179 -56 124 -71 139 -134 139 -37 -1 -44 -4 -262 -94 -88 -36 -167 -66
-175 -66 -9 0 -46 40 -83 88 -84 112 -277 299 -385 375 -75 53 -84 62 -79 85
3 15 44 122 92 237 49 116 90 228 92 251 6 57 -22 85 -132 130 -108 43 -390
163 -496 210 -88 39 -103 41 -144 15z m-449 -1291 c165 -29 285 -69 426 -141
413 -212 680 -615 719 -1080 55 -667 -389 -1256 -1056 -1399 -115 -25 -370
-30 -471 -10 -166 32 -261 63 -387 126 -356 180 -608 495 -704 882 -24 97 -27
125 -27 302 0 170 3 207 23 285 102 408 359 734 716 912 181 91 352 131 561
132 77 1 167 -4 200 -9z"/>
<path d="M11753 14136 c-28 -24 -28 -27 -33 -157 l-5 -133 -78 -22 c-43 -12
-125 -45 -182 -73 -58 -28 -111 -51 -118 -51 -7 0 -55 45 -106 100 -51 55
-105 107 -120 115 -46 23 -69 6 -280 -208 -79 -81 -92 -98 -86 -117 4 -13 56
-74 116 -136 60 -62 109 -120 109 -129 0 -9 -17 -47 -39 -83 -37 -65 -103
-219 -116 -274 -4 -15 -12 -32 -19 -37 -7 -6 -61 -11 -121 -12 -116 -1 -167
-15 -186 -50 -11 -21 -5 -392 6 -422 14 -35 58 -47 179 -47 l115 0 27 -87 c15
-49 47 -131 71 -183 26 -56 42 -103 39 -115 -3 -11 -48 -62 -101 -113 -60 -58
-95 -99 -95 -112 0 -12 23 -47 52 -78 112 -122 224 -234 256 -253 l32 -21 34
21 c19 12 68 59 111 106 42 47 84 85 93 85 10 0 31 -9 47 -21 47 -32 152 -79
250 -111 50 -16 94 -33 99 -38 5 -5 11 -59 12 -120 5 -183 5 -183 267 -172
l197 7 28 28 c26 26 27 33 32 145 l5 117 90 31 c117 40 168 63 235 108 30 20
59 36 65 36 5 0 51 -41 101 -91 79 -79 95 -90 115 -84 34 11 329 304 329 327
0 11 -40 61 -90 112 -49 51 -90 99 -90 106 0 8 20 52 44 99 24 48 56 125 71
173 16 56 33 92 45 98 10 5 69 9 130 9 97 -1 116 2 139 19 l26 19 -3 179 c-3
213 -7 240 -33 254 -11 6 -76 12 -145 14 -69 2 -127 6 -130 9 -4 3 -23 55 -44
116 -35 100 -60 154 -116 248 l-19 32 113 114 c62 63 112 122 112 133 0 10
-67 85 -159 177 -148 148 -161 159 -188 153 -17 -4 -70 -49 -133 -112 -58 -57
-111 -104 -118 -104 -6 0 -33 13 -59 29 -27 16 -95 48 -153 70 -172 68 -155
45 -156 201 0 204 6 200 -276 200 -162 0 -168 -1 -195 -24z m368 -756 c393
-99 642 -473 579 -870 -14 -86 -73 -231 -126 -305 -106 -151 -257 -252 -453
-301 -96 -24 -291 -15 -386 19 -233 81 -386 224 -480 445 -58 138 -69 312 -30
467 21 83 85 208 145 282 177 220 489 330 751 263z"/>
<path d="M5404 19254 c-76 -97 -192 -242 -256 -322 -70 -87 -114 -151 -110
-158 4 -7 81 -71 172 -142 91 -72 251 -198 355 -282 105 -83 251 -199 325
-258 237 -187 623 -493 697 -554 39 -32 78 -58 87 -58 8 0 72 73 142 163 119
150 225 285 331 416 24 29 43 61 42 70 0 9 -52 57 -116 106 -122 95 -380 300
-858 680 -159 127 -330 262 -378 301 -49 38 -130 102 -180 141 -51 40 -97 73
-103 73 -6 0 -74 -79 -150 -176z"/>
<path d="M19799 19327 c-70 -56 -176 -140 -235 -187 -60 -47 -221 -175 -360
-285 -138 -110 -398 -317 -577 -460 -180 -142 -327 -263 -327 -267 0 -5 78
-106 173 -226 95 -119 208 -262 251 -317 43 -55 83 -103 90 -107 10 -6 124 80
302 225 28 23 154 123 279 222 125 99 375 297 554 440 180 143 368 293 419
333 51 39 92 77 92 82 0 6 -72 101 -161 213 -88 111 -202 255 -252 319 -51 64
-99 117 -107 117 -8 0 -72 -46 -141 -102z"/>
<path d="M3258 13643 c-17 -4 -18 -33 -18 -424 l0 -419 1053 2 1052 3 3 414
c2 325 0 416 -10 423 -13 8 -2049 9 -2080 1z"/>
<path d="M20157 13638 c-16 -12 -17 -45 -15 -423 l3 -410 1049 -3 c833 -2
1051 0 1058 10 11 17 8 801 -3 819 -12 20 -2065 26 -2092 7z"/>
<path d="M6239 9314 c-68 -48 -209 -144 -314 -213 -104 -70 -254 -170 -331
-223 -78 -53 -247 -167 -375 -254 -372 -250 -530 -357 -557 -380 l-25 -21 118
-179 c204 -310 348 -514 361 -514 7 0 16 4 19 10 3 5 47 37 98 71 51 34 133
90 182 124 50 34 299 203 555 375 776 523 853 576 863 592 8 12 -40 90 -208
339 -221 328 -243 359 -255 359 -4 0 -63 -39 -131 -86z"/>
<path d="M19014 9252 c-54 -81 -159 -236 -233 -345 -115 -169 -132 -200 -120
-211 8 -7 118 -83 244 -168 127 -85 397 -267 600 -405 204 -137 469 -316 590
-398 121 -81 234 -159 252 -172 17 -12 35 -23 40 -23 9 1 24 22 275 397 103
156 188 289 188 296 0 7 -113 89 -251 182 -138 94 -340 230 -448 304 -108 74
-344 234 -526 356 -181 121 -366 247 -410 278 -44 31 -85 57 -91 57 -6 0 -55
-66 -110 -148z"/>
</g>
</svg>
