<?xml version="1.0" standalone="no"?>
<!DOCTYPE svg PUBLIC "-//W3C//DTD SVG 20010904//EN"
 "http://www.w3.org/TR/2001/REC-SVG-20010904/DTD/svg10.dtd">
<svg version="1.0" xmlns="http://www.w3.org/2000/svg"
 width="1080.000000pt" height="1080.000000pt" viewBox="0 0 1080.000000 1080.000000"
 preserveAspectRatio="xMidYMid meet">

<g transform="translate(0.000000,1080.000000) scale(0.100000,-0.100000)"
fill="#000000" stroke="none">
<path d="M5155 10584 c-22 -2 -103 -9 -180 -14 -992 -77 -1963 -454 -2755
-1070 -888 -691 -1538 -1662 -1829 -2735 -214 -791 -238 -1663 -66 -2463 210
-973 693 -1859 1400 -2568 768 -770 1713 -1263 2785 -1454 371 -66 842 -94
1175 -70 676 49 1195 172 1776 420 1240 531 2251 1567 2757 2825 233 581 353
1159 378 1820 19 510 -78 1177 -248 1705 -102 315 -278 717 -437 995 -217 378
-515 767 -831 1084 -855 857 -1936 1373 -3144 1501 -179 20 -674 35 -781 24z
m595 -464 c808 -60 1613 -336 2280 -783 447 -300 887 -722 1199 -1152 552
-761 860 -1639 901 -2572 37 -843 -144 -1671 -522 -2393 -538 -1027 -1414
-1816 -2478 -2233 -1516 -594 -3238 -365 -4549 606 -178 131 -325 260 -522
456 -386 386 -659 762 -893 1229 -212 423 -376 939 -445 1397 -42 274 -46 339
-46 720 0 339 2 399 23 560 55 425 148 793 297 1175 472 1210 1448 2188 2660
2668 433 172 917 285 1375 321 152 12 563 13 720 1z"/>
<path d="M3541 9360 c-162 -43 -296 -152 -371 -302 -73 -148 -71 -112 -67
-1359 3 -1221 -1 -1136 68 -1279 42 -86 161 -206 246 -249 121 -60 124 -61
834 -61 355 0 648 -2 651 -5 3 -3 -21 -59 -54 -126 -64 -133 -57 -128 -136
-91 -27 12 -57 14 -155 9 -212 -10 -349 -69 -492 -212 -137 -137 -205 -301
-205 -494 1 -107 9 -156 45 -251 30 -78 83 -161 148 -229 26 -27 47 -53 47
-58 -1 -4 -33 -28 -73 -53 -88 -55 -204 -164 -264 -247 -25 -35 -48 -63 -53
-63 -4 0 -30 31 -58 68 -63 85 -168 185 -252 240 -36 23 -69 43 -74 45 -5 2
19 36 53 77 122 146 170 263 178 435 6 142 -12 230 -73 355 -39 77 -62 109
-128 175 -131 129 -240 182 -438 209 -87 12 -107 12 -185 -3 -143 -27 -283
-109 -394 -229 -254 -274 -249 -682 12 -957 l50 -53 -83 -54 c-202 -132 -340
-320 -415 -565 -25 -83 -26 -103 -31 -334 -3 -213 -2 -250 12 -277 36 -69 12
-66 611 -72 l540 -5 27 -54 c43 -84 83 -142 132 -191 26 -24 46 -49 46 -56 0
-6 -27 -28 -59 -48 -76 -46 -209 -172 -273 -256 -58 -76 -127 -214 -159 -320
-20 -68 -23 -101 -26 -336 l-5 -261 32 -37 c19 -21 47 -40 70 -46 25 -7 880
-9 2601 -8 2391 3 2566 4 2595 20 63 34 69 55 72 246 6 293 -20 429 -115 614
-81 159 -188 277 -334 373 -41 26 -76 50 -78 52 -3 2 13 22 35 46 63 65 98
116 138 195 l36 72 548 0 c519 0 548 1 576 19 63 42 66 55 66 289 0 222 -9
301 -52 427 -67 200 -214 391 -396 512 l-83 55 44 47 c132 142 200 308 200
491 -1 120 -22 212 -75 320 -55 111 -186 247 -293 302 -132 69 -294 99 -421
79 -163 -25 -280 -81 -395 -189 -294 -275 -299 -712 -12 -1013 l35 -37 -71
-45 c-87 -57 -219 -182 -273 -259 -23 -32 -44 -58 -48 -58 -4 0 -30 31 -58 68
-67 90 -171 187 -260 242 -39 25 -71 49 -72 54 0 4 24 35 54 67 68 73 120 158
153 251 38 106 44 282 14 393 -94 343 -429 573 -765 526 -46 -6 -111 -20 -143
-31 -31 -10 -58 -18 -59 -17 -1 1 -31 59 -67 129 -52 100 -62 128 -50 132 8 3
301 6 651 6 527 0 648 3 700 15 162 38 302 153 376 310 64 133 61 72 61 1320
l0 1140 -27 80 c-68 198 -214 334 -414 385 -75 20 -116 20 -1838 19 -1708 0
-1763 -1 -1835 -19z m3639 -321 c58 -26 96 -62 128 -124 l27 -50 3 -1104 c3
-1247 8 -1164 -75 -1253 -86 -91 94 -83 -1883 -83 -1465 0 -1751 2 -1784 14
-60 21 -132 93 -156 157 -20 54 -20 74 -20 1143 0 1210 -3 1148 67 1230 18 22
56 51 85 65 l52 26 1755 0 c1745 0 1756 -1 1801 -21z m-1694 -2937 c6 -4 46
-76 88 -159 l76 -153 -270 0 -270 0 76 153 c42 83 82 155 88 159 6 4 54 8 106
8 52 0 100 -4 106 -8z m-2473 -512 c108 -41 204 -137 249 -250 30 -78 30 -222
0 -300 -117 -294 -491 -373 -709 -150 -64 65 -99 135 -115 228 -36 215 90 423
295 483 81 24 199 20 280 -11z m1671 9 c108 -29 215 -122 269 -237 30 -62 32
-75 32 -172 0 -100 -2 -109 -36 -180 -91 -191 -292 -287 -492 -235 -84 22
-134 51 -197 114 -167 167 -170 428 -6 595 110 113 273 157 430 115z m1691 6
c163 -42 285 -178 317 -354 30 -158 -62 -346 -213 -434 -231 -136 -539 -15
-620 242 -101 325 189 630 516 546z m1701 1 c124 -33 230 -123 287 -243 29
-63 32 -76 32 -173 0 -97 -3 -110 -32 -173 -133 -281 -493 -343 -703 -121
-157 165 -158 415 -3 584 107 117 270 166 419 126z m-2485 -208 c-21 -62 -25
-92 -25 -198 -1 -105 3 -137 22 -200 40 -127 84 -202 174 -296 l49 -50 -82
-53 c-91 -60 -216 -179 -269 -259 -19 -28 -39 -52 -45 -52 -5 0 -19 15 -31 33
-69 105 -204 233 -318 300 l-47 27 58 65 c110 123 161 233 186 397 13 89 0
207 -33 302 l-19 56 203 0 202 0 -25 -72z m-2559 -939 c130 -33 251 -102 342
-197 l38 -40 -28 -17 c-211 -129 -328 -285 -371 -498 l-18 -87 -425 2 -425 3
1 125 c2 229 60 369 218 525 102 102 188 151 316 185 104 26 247 26 352 -1z
m1703 1 c88 -23 160 -54 223 -97 56 -38 153 -133 147 -143 -3 -5 -31 -23 -63
-40 -82 -46 -199 -169 -245 -257 -49 -93 -66 -142 -81 -228 l-12 -70 -146 -3
-145 -3 -17 88 c-11 58 -33 121 -63 183 -38 80 -59 109 -132 181 -47 47 -110
98 -138 114 -29 15 -53 32 -53 36 0 19 147 140 212 175 156 82 348 106 513 64z
m1707 -1 c89 -22 181 -65 243 -112 52 -39 125 -109 125 -119 0 -4 -19 -17 -42
-29 -138 -70 -266 -213 -324 -363 -19 -48 -54 -185 -54 -211 0 -3 -61 -5 -135
-5 -132 0 -135 0 -139 23 -51 261 -150 418 -338 534 -32 20 -58 39 -58 44 0
30 136 142 233 190 134 68 335 88 489 48z m1754 -13 c218 -71 402 -268 463
-497 21 -79 38 -272 26 -308 l-6 -21 -437 2 -437 3 -3 25 c-2 14 -12 61 -23
105 -41 163 -146 311 -288 405 l-82 55 74 71 c86 81 193 142 307 173 109 30
292 25 406 -13z m-4361 -461 c105 -29 205 -117 258 -225 31 -62 32 -70 32
-185 0 -116 -1 -122 -33 -183 -82 -158 -219 -244 -387 -243 -195 1 -357 122
-411 306 -23 80 -16 222 14 289 45 100 144 198 237 234 81 32 191 34 290 7z
m3400 -2 c197 -62 322 -270 287 -474 -16 -91 -51 -159 -120 -231 -165 -174
-440 -174 -608 -2 -76 78 -105 144 -116 265 -8 90 -7 107 12 164 78 233 311
352 545 278z m-1640 -24 c217 -107 300 -352 196 -576 -92 -196 -349 -291 -549
-203 -311 138 -354 562 -75 747 89 60 143 74 258 70 90 -3 108 -7 170 -38z
m-835 -654 c29 -67 86 -151 142 -212 28 -29 49 -55 47 -56 -2 -2 -35 -23 -74
-47 -81 -51 -237 -203 -280 -272 -17 -27 -33 -48 -36 -48 -3 0 -21 21 -39 48
-87 122 -202 230 -311 290 l-47 27 53 60 c56 64 135 181 135 199 0 6 7 22 16
34 15 21 20 22 195 22 l180 0 19 -45z m1690 0 c29 -67 86 -151 142 -212 28
-29 49 -55 47 -56 -2 -2 -35 -23 -74 -47 -82 -52 -227 -192 -277 -267 l-35
-53 -33 53 c-47 73 -181 203 -270 261 -41 27 -77 51 -79 53 -3 2 13 22 35 46
63 65 98 116 138 195 l36 72 175 0 176 0 19 -45z m-2525 -469 c188 -65 335
-194 420 -371 56 -117 68 -172 69 -325 l1 -125 -710 0 -710 0 -3 94 c-6 208
59 389 191 528 161 169 319 236 547 229 93 -2 130 -8 195 -30z m1651 14 c204
-52 370 -183 469 -371 54 -103 75 -199 75 -346 l0 -123 -710 0 -710 0 0 126
c0 151 14 213 77 344 86 178 261 318 463 370 101 26 234 26 336 0z m1690 0
c211 -53 380 -190 474 -385 54 -110 70 -186 70 -332 l0 -123 -710 0 -710 0 0
118 c0 138 11 206 46 294 132 324 496 512 830 428z"/>
<path d="M5533 8460 c-40 -24 -42 -29 -141 -275 -44 -110 -127 -312 -183 -450
-136 -335 -217 -542 -230 -588 -20 -74 35 -137 120 -137 60 0 90 35 145 166
158 385 400 988 437 1088 16 44 29 94 29 111 0 82 -101 132 -177 85z"/>
<path d="M4611 8208 c-52 -51 -171 -169 -263 -263 -182 -184 -195 -206 -166
-269 19 -38 237 -266 404 -421 l123 -115 51 0 c44 0 56 5 81 29 24 25 29 38
29 79 0 63 -1 64 -229 294 l-176 178 111 112 c163 166 278 288 288 305 13 24
9 89 -9 116 -20 31 -56 47 -107 47 -38 0 -47 -7 -137 -92z"/>
<path d="M5851 8274 c-33 -27 -48 -76 -37 -120 4 -14 93 -112 208 -230 l202
-205 -186 -187 c-102 -103 -195 -200 -206 -216 -26 -34 -28 -75 -7 -116 22
-43 53 -60 108 -60 l50 0 263 263 264 263 0 54 0 54 -263 263 -263 263 -51 0
c-41 0 -58 -5 -82 -26z"/>
</g>
</svg>
