<?xml version="1.0" standalone="no"?>
<!DOCTYPE svg PUBLIC "-//W3C//DTD SVG 20010904//EN"
 "http://www.w3.org/TR/2001/REC-SVG-20010904/DTD/svg10.dtd">
<svg version="1.0" xmlns="http://www.w3.org/2000/svg"
 width="1080.000000pt" height="1080.000000pt" viewBox="0 0 1080.000000 1080.000000"
 preserveAspectRatio="xMidYMid meet">

<g transform="translate(0.000000,1080.000000) scale(0.100000,-0.100000)"
fill="#000000" stroke="none">
<path d="M5290 10623 c-1677 -31 -3244 -880 -4204 -2277 -983 -1430 -1186
-3279 -539 -4901 387 -970 1095 -1839 1963 -2411 279 -184 628 -370 901 -481
479 -195 973 -317 1491 -370 240 -24 775 -24 1013 0 1224 125 2323 645 3186
1507 592 591 1008 1263 1269 2050 280 843 342 1718 183 2595 -223 1235 -892
2354 -1885 3150 -800 641 -1791 1036 -2808 1120 -194 16 -378 21 -570 18z
m515 -474 c1106 -93 2138 -564 2929 -1339 312 -305 551 -606 763 -959 372
-619 587 -1279 664 -2036 16 -156 16 -695 0 -850 -80 -772 -296 -1426 -683
-2065 -299 -493 -741 -977 -1212 -1329 -1002 -748 -2236 -1070 -3481 -910
-2027 261 -3676 1811 -4064 3819 -62 321 -85 571 -85 920 1 361 28 631 95 958
151 729 471 1415 933 1995 876 1102 2164 1755 3571 1811 120 5 434 -4 570 -15z"/>
<path d="M3352 8810 c-53 -32 -62 -69 -62 -242 0 -168 9 -202 62 -241 33 -25
98 -26 133 -3 49 32 65 73 65 164 l0 82 2325 0 2325 0 -2 -1527 -3 -1528 -263
-3 c-207 -2 -264 0 -267 11 -3 7 24 66 60 132 35 66 65 124 65 128 0 5 -30 64
-67 133 l-67 124 -588 0 -588 0 0 -259 c0 -227 -2 -260 -16 -265 -9 -3 -351
-6 -760 -6 l-744 0 -38 -34 c-34 -32 -37 -39 -37 -90 0 -49 4 -59 33 -88 l32
-33 1758 -5 1757 -5 3 -67 3 -68 -1736 0 c-1885 0 -1777 3 -1823 -55 -33 -41
-37 -86 -13 -132 40 -79 -130 -73 1908 -73 1784 0 1819 0 1850 20 64 39 68 52
71 281 4 222 -3 270 -42 316 -23 26 -30 28 -123 33 l-98 5 -5 1615 c-4 1308
-7 1619 -18 1638 -7 13 -28 32 -45 42 -31 20 -74 20 -2522 20 -2480 0 -2490 0
-2523 -20z"/>
<path d="M6850 8270 c-14 -52 -63 -101 -125 -123 -65 -23 -117 -22 -166 3
l-39 21 -55 -52 c-30 -29 -55 -58 -55 -66 0 -7 8 -25 17 -40 27 -42 22 -117
-13 -188 -24 -49 -37 -64 -74 -82 -25 -12 -53 -24 -63 -27 -16 -5 -17 -16 -15
-88 l3 -82 35 -9 c54 -14 86 -43 117 -104 33 -68 37 -145 10 -186 -25 -38 -22
-48 31 -100 50 -49 71 -55 112 -32 57 33 178 6 237 -52 18 -18 37 -50 43 -72
12 -46 22 -51 100 -51 61 0 90 15 90 48 0 34 47 86 106 116 58 30 59 32 62 77
2 29 -2 50 -10 57 -8 6 -80 12 -183 14 -161 3 -173 4 -228 30 -36 17 -81 51
-116 86 -184 188 -126 497 114 609 57 26 70 28 232 33 107 3 176 9 183 16 6 6
10 31 8 55 -3 43 -5 45 -62 74 -63 33 -95 69 -105 118 l-7 32 -86 3 -87 3 -11
-41z"/>
<path d="M7423 8223 c-21 -10 -41 -33 -55 -61 -18 -39 -20 -50 -10 -86 11 -41
11 -41 -35 -88 l-47 -48 -160 -2 -161 -3 0 -40 0 -40 183 -3 183 -2 61 65 c55
59 64 65 101 65 77 0 129 55 129 135 0 90 -106 151 -189 108z m107 -73 c11
-11 20 -29 20 -40 0 -24 -42 -70 -63 -70 -27 0 -67 41 -67 67 0 57 69 84 110
43z"/>
<path d="M3560 8155 c-100 -16 -220 -61 -299 -112 -31 -20 -94 -75 -141 -123
-95 -95 -149 -185 -195 -325 -24 -71 -27 -95 -27 -220 0 -125 3 -149 27 -220
95 -286 310 -488 586 -551 107 -24 82 -32 -111 -33 -162 -1 -236 -15 -332 -60
-127 -61 -218 -167 -273 -321 l-30 -85 -3 -786 -3 -787 -67 -38 c-142 -82
-265 -242 -307 -400 -21 -78 -21 -250 0 -328 23 -86 88 -205 151 -274 29 -33
54 -62 54 -65 0 -3 -37 -30 -82 -60 -132 -87 -240 -212 -317 -364 -67 -134
-101 -317 -101 -542 1 -133 10 -176 50 -215 l30 -31 3231 -3 c3567 -2 3269 -8
3306 61 16 28 18 58 17 232 -1 228 -13 307 -68 440 -69 170 -220 351 -366 440
-33 20 -60 39 -60 42 0 3 27 34 59 70 192 209 223 507 80 761 -50 88 -179 210
-269 254 -90 43 -223 78 -299 78 -61 0 -192 -29 -256 -55 -176 -74 -341 -266
-384 -447 -50 -212 6 -434 148 -590 34 -36 61 -68 61 -71 0 -3 -26 -22 -59
-41 -78 -48 -189 -152 -252 -237 -29 -38 -55 -69 -58 -69 -3 0 -17 19 -31 42
-39 65 -177 200 -257 252 -40 26 -73 50 -73 55 0 4 14 20 31 37 50 47 116 146
148 220 101 238 34 538 -160 718 -214 198 -517 238 -765 100 -160 -88 -279
-239 -323 -409 -40 -152 -20 -339 50 -464 35 -62 136 -191 150 -191 24 0 3
-22 -53 -56 -77 -47 -213 -176 -264 -250 -20 -30 -40 -54 -44 -54 -4 0 -20 19
-35 43 -70 106 -178 208 -287 271 l-48 28 53 59 c67 77 120 164 149 248 20 57
23 85 23 206 -1 126 -3 147 -27 207 -38 100 -85 173 -159 247 -77 78 -152 124
-257 162 l-77 27 -3 601 -2 601 32 15 c18 8 123 47 233 86 372 132 417 150
476 189 61 42 137 130 344 400 66 85 190 246 276 357 185 238 203 266 224 358
70 298 -238 541 -523 415 -66 -30 -97 -60 -220 -219 -63 -80 -156 -200 -208
-266 -51 -66 -133 -171 -181 -234 -49 -63 -95 -118 -103 -121 -8 -4 -53 -15
-100 -25 -47 -9 -148 -30 -225 -46 -77 -16 -192 -40 -255 -54 -63 -13 -159
-33 -214 -44 -80 -17 -132 -21 -285 -20 -229 1 -254 7 -137 37 304 77 538 327
591 630 19 107 19 168 0 274 -18 106 -61 213 -121 300 -55 80 -179 200 -256
246 -77 45 -208 89 -308 101 -101 13 -111 13 -220 -4z m213 -256 c251 -38 447
-267 447 -524 0 -227 -148 -431 -368 -507 -52 -18 -89 -23 -167 -23 -117 0
-199 24 -292 84 -146 94 -241 270 -243 447 0 67 33 192 67 257 67 126 221 238
362 263 87 16 109 16 194 3z m2268 -558 c23 -24 29 -38 29 -73 0 -24 -6 -54
-13 -68 -7 -14 -85 -117 -172 -230 -88 -113 -240 -310 -339 -438 l-180 -233
-71 -34 c-38 -18 -220 -86 -404 -151 -200 -71 -346 -128 -362 -142 -16 -13
-33 -40 -39 -60 -6 -24 -10 -275 -10 -687 l0 -650 -74 -23 c-151 -47 -298
-173 -375 -321 -44 -86 -56 -124 -71 -234 -23 -165 44 -370 164 -504 31 -33
56 -64 56 -67 0 -3 -32 -26 -72 -51 -81 -53 -209 -178 -253 -248 -17 -26 -33
-47 -36 -47 -4 0 -15 12 -24 28 -69 107 -192 226 -297 286 l-47 27 63 75 c215
252 223 586 20 844 -104 133 -275 226 -453 246 l-61 7 2 751 3 751 23 50 c43
92 102 135 221 161 51 10 169 14 524 14 l459 0 139 30 c289 62 420 90 619 130
113 23 217 50 231 59 24 15 83 88 497 623 84 108 158 199 165 201 6 3 34 6 60
6 41 1 53 -4 78 -28z m-2905 -3032 c119 -37 213 -121 256 -228 19 -45 23 -75
23 -156 0 -88 -3 -107 -27 -157 -36 -76 -71 -121 -127 -161 -162 -117 -370
-104 -514 32 -229 216 -127 601 178 677 75 18 135 16 211 -7z m3186 1 c230
-71 344 -307 257 -534 -28 -72 -107 -161 -178 -199 -202 -110 -455 -29 -557
178 -27 55 -29 69 -29 170 0 104 2 114 33 177 87 178 287 266 474 208z m1621
-10 c325 -124 346 -576 33 -730 -278 -137 -596 78 -574 389 9 122 85 249 185
308 113 66 239 78 356 33z m-3161 -12 c120 -55 209 -174 227 -300 52 -377
-384 -609 -666 -354 -96 87 -145 232 -123 359 26 141 112 246 249 304 49 21
69 23 156 20 83 -2 110 -7 157 -29z m-1583 -1044 c217 -62 401 -245 464 -462
18 -59 33 -256 23 -296 l-6 -26 -658 2 -657 3 -3 110 c-3 135 16 230 65 323
110 208 275 324 523 366 45 8 192 -4 249 -20z m1624 -11 c163 -54 314 -186
388 -338 50 -105 71 -204 67 -331 l-3 -99 -660 0 -660 0 -3 102 c-3 130 16
225 69 331 91 185 287 330 488 362 90 14 224 2 314 -27z m1547 15 c75 -17 201
-83 268 -140 114 -97 195 -232 222 -373 6 -33 10 -107 8 -165 l-3 -105 -660 0
-660 0 0 125 c1 143 22 230 81 336 95 170 292 308 477 334 71 10 200 4 267
-12z m1604 -4 c185 -48 347 -186 431 -369 43 -91 57 -165 59 -300 l1 -110
-662 -3 -663 -2 0 118 c0 137 22 240 70 330 106 199 274 314 520 356 43 8 182
-4 244 -20z"/>
<path d="M7888 7970 l-40 -40 -110 0 c-60 0 -119 -5 -131 -11 -12 -6 -55 -43
-95 -83 l-72 -71 -243 -5 -242 -5 0 -40 0 -40 260 -3 260 -2 82 80 82 80 106
0 c105 0 107 0 131 -29 71 -84 211 -49 229 58 14 83 -45 151 -130 151 -42 0
-52 -5 -87 -40z m130 -40 c42 -39 18 -110 -36 -110 -31 0 -72 36 -72 62 0 24
44 68 68 68 10 0 28 -9 40 -20z"/>
<path d="M7623 7659 c-17 -5 -43 -23 -57 -39 l-25 -30 -270 0 c-155 0 -281 -4
-296 -10 -23 -9 -26 -15 -23 -47 l3 -38 288 -3 288 -2 38 -40 c34 -36 43 -40
85 -40 86 0 136 47 136 127 0 41 -28 96 -57 111 -31 16 -77 21 -110 11z m73
-67 c13 -9 34 -46 34 -62 0 -19 -48 -60 -70 -60 -28 0 -60 35 -60 65 0 46 60
82 96 57z"/>
<path d="M6968 7400 c-21 -13 -24 -60 -6 -78 8 -8 59 -12 166 -12 l153 0 35
-37 c27 -30 33 -43 28 -63 -15 -59 -7 -95 30 -134 31 -33 38 -36 91 -36 51 0
60 3 90 33 83 83 30 217 -87 221 -41 1 -49 6 -95 56 l-51 55 -168 3 c-107 1
-175 -2 -186 -8z m542 -190 c11 -11 20 -31 20 -45 0 -14 -9 -34 -20 -45 -11
-11 -31 -20 -45 -20 -31 0 -65 33 -65 62 0 29 38 68 67 68 13 0 32 -9 43 -20z"/>
</g>
</svg>
